<?xml version="1.0" encoding="utf-8"?>
<svg xmlns="http://www.w3.org/2000/svg" viewBox="0 2.656 445.334 501.441" xmlns:bx="https://boxy-svg.com">
  <defs>
    <linearGradient id="color-0" bx:pinned="true" gradientUnits="userSpaceOnUse">
      <stop style="stop-color: rgb(28, 140, 246);"/>
    </linearGradient>
  </defs>
  <g transform="matrix(1.110924, 0, 0, 1.110924, -55.063984, -21.786976)" style="">
    <g id="SvgjsG3261" featurekey="symbolFeature-0" transform="matrix(5.410757, 0, 0, 5.410757, 6.515912, 4.204768)" fill="#1c8cf6" style="">
      <polygon xmlns="http://www.w3.org/2000/svg" points="38.182,57.753 20.18,47.91 20.18,42.455 38.182,32.652 38.182,39.074 25.625,45.113 38.182,51.379 " style="stroke: url(&quot;#color-0&quot;); stroke-linejoin: round; stroke-linecap: round; stroke-width: 1.16454px;"/>
      <polygon xmlns="http://www.w3.org/2000/svg" points="39.848,62.08 46.351,27.918 50.136,27.918 43.56,62.08 " style="stroke: url(&quot;#color-0&quot;); stroke-linejoin: round; stroke-linecap: round; stroke-width: 1.16454px;"/>
      <polygon xmlns="http://www.w3.org/2000/svg" points="51.8,57.78 51.8,51.4 64.372,45.181 51.8,39.028 51.8,32.696 69.82,42.5 69.82,47.91 " style="stroke: url(&quot;#color-0&quot;); stroke-linejoin: round; stroke-linecap: round; stroke-width: 1.16454px;"/>
      <path xmlns="http://www.w3.org/2000/svg" d="M44.999,86.031L9.465,65.517V24.484L44.999,3.969l35.536,20.516v41.029L44.999,86.031L44.999,86.031z M13.07,63.434  l31.929,18.434L76.93,63.434V26.566L44.999,8.131L13.07,26.565V63.434L13.07,63.434z" style="stroke: url(&quot;#color-0&quot;); stroke-linejoin: round; stroke-linecap: round; stroke-width: 1.16454px;"/>
    </g>
  </g>
</svg>